<svg width="24" height="24" viewBox="0 0 24 24" fill="none" xmlns="http://www.w3.org/2000/svg">
<path d="M12.0117 5.10156V18.7241" stroke="#4A291B" stroke-width="0.4" stroke-miterlimit="10"/>
<path d="M11.9934 12.4976C11.9934 12.4976 8.4154 18.9619 5.02564 18.9619C2.00898 18.9619 2.01244 12.0843 2.01244 12.0843C2.01244 12.0843 1.63588 5 5.02564 5C8.4154 5 11.9934 12.497 11.9934 12.497V12.4976Z" stroke="#4A291B" stroke-width="0.4" stroke-miterlimit="10"/>
<path d="M11.9944 12.4976C11.9944 12.4976 9.97864 18.9619 8.06952 18.9619C6.37014 18.9619 6.37222 12.0843 6.37222 12.0843C6.37222 12.0843 6.1604 5 8.06952 5C9.97864 5 11.9944 12.497 11.9944 12.497V12.4976Z" stroke="#4A291B" stroke-width="0.4" stroke-miterlimit="10"/>
<path d="M12.0059 12.4976C12.0059 12.4976 15.5839 18.9619 18.9737 18.9619C21.9903 18.9619 21.9869 12.0843 21.9869 12.0843C21.9869 12.0843 22.3634 5 18.9737 5C15.5839 5 12.0059 12.497 12.0059 12.497V12.4976Z" stroke="#4A291B" stroke-width="0.4" stroke-miterlimit="10"/>
<path d="M12.0059 12.4976C12.0059 12.4976 14.0216 18.9619 15.9307 18.9619C17.6301 18.9619 17.628 12.0843 17.628 12.0843C17.628 12.0843 17.8398 5 15.9307 5C14.0216 5 12.0059 12.497 12.0059 12.497V12.4976Z" stroke="#4A291B" stroke-width="0.4" stroke-miterlimit="10"/>
</svg>
